<?xml version="1.0" encoding="UTF-8" standalone="no"?>
<svg
   version="1.1"
   width="168.68449mm"
   height="123.16749mm"
   viewBox="0 0 168.68449 123.16749"
   id="svg1394"
   sodipodi:docname="left_case-brd.svg"
   inkscape:version="1.3 (0e150ed, 2023-07-21)"
   xmlns:inkscape="http://www.inkscape.org/namespaces/inkscape"
   xmlns:sodipodi="http://sodipodi.sourceforge.net/DTD/sodipodi-0.dtd"
   xmlns="http://www.w3.org/2000/svg"
   xmlns:svg="http://www.w3.org/2000/svg">
  <defs
     id="defs1394" />
  <sodipodi:namedview
     id="namedview1394"
     pagecolor="#505050"
     bordercolor="#eeeeee"
     borderopacity="1"
     inkscape:showpageshadow="0"
     inkscape:pageopacity="0"
     inkscape:pagecheckerboard="0"
     inkscape:deskcolor="#505050"
     inkscape:document-units="mm"
     inkscape:zoom="0.42008297"
     inkscape:cx="780.79814"
     inkscape:cy="338.02846"
     inkscape:window-width="1264"
     inkscape:window-height="1317"
     inkscape:window-x="1274"
     inkscape:window-y="75"
     inkscape:window-maximized="0"
     inkscape:current-layer="svg1394" />
  <title
     id="title1">SVG Image created as left_case-brd.svg date 2025/01/16 21:46:14 </title>
  <desc
     id="desc1">Image generated by PCBNEW </desc>
  <g
     style="fill:#000000;fill-opacity:1;stroke:#000000;stroke-linecap:round;stroke-linejoin:round;stroke-opacity:1"
     id="g1" />
  <g
     style="fill:none;stroke:#000000;stroke-width:0.15;stroke-linecap:round;stroke-linejoin:round;stroke-opacity:1"
     id="g1199">
    <text
       x="300.98901"
       y="264.7522"
       textLength="0.44999999"
       font-size="2px"
       lengthAdjust="spacingAndGlyphs"
       text-anchor="start"
       opacity="0"
       stroke-opacity="0"
       id="text1197" />
    <g
       class="stroked-text"
       id="g1198">
      <desc
         id="desc1197" />
    </g>
  </g>
  <g
     style="fill:none;stroke:#000000;stroke-width:0.15;stroke-linecap:round;stroke-linejoin:round;stroke-opacity:1"
     id="g1201">
    <text
       x="300.98901"
       y="261.7522"
       textLength="0.44999999"
       font-size="2px"
       lengthAdjust="spacingAndGlyphs"
       text-anchor="start"
       opacity="0"
       stroke-opacity="0"
       id="text1199" />
    <g
       class="stroked-text"
       id="g1200">
      <desc
         id="desc1199" />
    </g>
  </g>
  <g
     style="fill:none;stroke:#000000;stroke-width:0.15;stroke-linecap:round;stroke-linejoin:round;stroke-opacity:1"
     id="g1203">
    <text
       x="300.98901"
       y="258.7522"
       textLength="0.44999999"
       font-size="2px"
       lengthAdjust="spacingAndGlyphs"
       text-anchor="start"
       opacity="0"
       stroke-opacity="0"
       id="text1201" />
    <g
       class="stroked-text"
       id="g1202">
      <desc
         id="desc1201" />
    </g>
  </g>
  <g
     style="fill:none;stroke:#000000;stroke-width:0.15;stroke-linecap:round;stroke-linejoin:round;stroke-opacity:1"
     id="g1205">
    <text
       x="300.98901"
       y="255.7522"
       textLength="0.44999999"
       font-size="2px"
       lengthAdjust="spacingAndGlyphs"
       text-anchor="start"
       opacity="0"
       stroke-opacity="0"
       id="text1203" />
    <g
       class="stroked-text"
       id="g1204">
      <desc
         id="desc1203" />
    </g>
  </g>
  <g
     style="fill:none;stroke:#c2c2c2;stroke-width:0.1;stroke-linecap:round;stroke-linejoin:round;stroke-opacity:1"
     id="g1211"
     transform="translate(-88.4,-43.2)">
    <circle
       cx="158.64999"
       cy="126.975"
       r="2.5"
       id="circle1207" />
    <circle
       cx="110.025"
       cy="120.425"
       r="2.5"
       id="circle1208" />
    <circle
       cx="129.575"
       cy="69.324997"
       r="2.5"
       id="circle1209" />
    <circle
       cx="188.72501"
       cy="75.324997"
       r="2.5"
       id="circle1210" />
    <circle
       cx="211.27499"
       cy="119.45"
       r="2.5"
       id="circle1211" />
  </g>
  <g
     style="fill:none;stroke:#c2c2c2;stroke-width:0.15;stroke-linecap:round;stroke-linejoin:round;stroke-opacity:1"
     id="g1214"
     transform="translate(-88.4,-43.2)">
    <path
       d="m 241.5069,124.6333 -3.0732,2.4011"
       id="path1211" />
    <path
       d="m 238.4337,127.0344 -1.5392,-1.97"
       id="path1212" />
    <path
       d="m 239.9678,122.6633 1.5391,1.97"
       id="path1213" />
    <path
       style="fill:none;stroke:#c2c2c2;stroke-width:0.1;stroke-linecap:round;stroke-linejoin:round;stroke-opacity:1"
       d="m 252.3,71.35 h -22 v 35.5 h 22 z"
       id="path1214" />
  </g>
  <g
     style="fill:none;stroke:#c2c2c2;stroke-width:0.2;stroke-linecap:round;stroke-linejoin:round;stroke-opacity:1"
     id="g1219"
     transform="translate(-88.4,-43.2)">
    <path
       d="M 244.856,75.126 H 237.49"
       id="path1215" />
    <path
       d="m 237.49,75.126 v -5.08"
       id="path1216" />
    <path
       d="m 237.49,70.046 h 7.366"
       id="path1217" />
    <path
       d="m 244.856,70.046 v 5.08"
       id="path1218" />
    <path
       style="fill:none;stroke:#c2c2c2;stroke-width:0.1;stroke-linecap:round;stroke-linejoin:round;stroke-opacity:1"
       d="m 248.629,117.8405 -2.364,1.847 -0.9235,-1.182 2.364,-1.847 z"
       id="path1219" />
  </g>
  <g
     style="fill:none;stroke:#c2c200;stroke-width:0.15;stroke-linecap:round;stroke-linejoin:round;stroke-opacity:1"
     id="g1394"
     transform="translate(-88.4,-43.2)">
    <path
       d="m 90.475,161.525 h 38.6"
       id="path1220" />
    <path
       d="M 88.475,159.525 V 62.275"
       id="path1221" />
    <path
       d="m 90.475,60.275 h 35.1"
       id="path1222" />
    <path
       d="m 131.075,159.525 v -27.55"
       id="path1223" />
    <path
       d="m 133.075,129.975 h 2.575"
       id="path1224" />
    <path
       d="m 145.125,48.275 h -15.55"
       id="path1225" />
    <path
       d="m 127.575,50.275 v 8"
       id="path1226" />
    <path
       d="m 170.175,49.275 v -4"
       id="path1227" />
    <path
       d="m 168.175,43.275 h -19.05"
       id="path1228" />
    <path
       d="m 147.125,45.275 v 1"
       id="path1229" />
    <path
       d="m 189.725,52.275 v -1"
       id="path1230" />
    <path
       d="m 189.725,51.275 h -17.55"
       id="path1231" />
    <path
       d="M 209.275,70.825 V 55.275"
       id="path1232" />
    <path
       d="m 207.275,53.275 h -16.55"
       id="path1233" />
    <path
       d="m 129.075,161.525 a 2,2 0 0 0 2,-2"
       id="path1234" />
    <path
       d="m 133.075,129.975 a 2,2 0 0 0 -2,2"
       id="path1235" />
    <path
       d="m 209.275,70.825 a 2,2 0 0 0 2e-4,0.025"
       id="path1236" />
    <path
       d="m 209.275,55.275 a 2,2 0 0 0 -2,-2"
       id="path1237" />
    <path
       d="m 170.175,49.275 a 2,2 0 0 0 2,2"
       id="path1238" />
    <path
       d="m 170.175,45.275 a 2,2 0 0 0 -2,-2"
       id="path1239" />
    <path
       d="m 149.125,43.275 a 2,2 0 0 0 -2,2"
       id="path1240" />
    <path
       d="m 145.125,48.275 a 2,2 0 0 0 2,-2"
       id="path1241" />
    <path
       d="m 129.575,48.275 a 2,2 0 0 0 -2,2"
       id="path1242" />
    <path
       d="m 125.575,60.275 a 2,2 0 0 0 2,-2"
       id="path1243" />
    <path
       d="m 90.475,60.275 a 2,2 0 0 0 -2,2"
       id="path1244" />
    <path
       d="m 88.475,159.525 a 2,2 0 0 0 2,2"
       id="path1245" />
    <path
       d="m 139.65,155.5 h 21"
       id="path1246" />
    <path
       d="m 160.65,155.5 v -1"
       id="path1247" />
    <path
       d="M 137.65,131.975 V 153.5"
       id="path1248" />
    <path
       d="m 160.65,154.5 h 15.1"
       id="path1249" />
    <path
       d="m 176.75,156.5 h 21"
       id="path1250" />
    <path
       d="m 199.75,154.5 v -0.5327"
       id="path1251" />
    <path
       d="m 176.75,155.5 v 1"
       id="path1252" />
    <path
       d="m 137.65,131.975 a 2,2 0 0 0 -2,-2"
       id="path1253" />
    <path
       d="m 137.65,153.5 a 2,2 0 0 0 2,2"
       id="path1254" />
    <path
       d="m 197.75,156.5 a 2,2 0 0 0 2,-2"
       id="path1255" />
    <path
       d="m 221.541,160.8344 11.43,-31.4038"
       id="path1256" />
    <path
       d="m 199.75,153.9673 20.5093,7.4647"
       id="path1257" />
    <path
       d="m 176.75,155.5 a 1,1 0 0 0 -1,-1"
       id="path1258" />
    <path
       d="m 220.2593,161.432 a 1,1 0 0 0 1.2817,-0.5976"
       id="path1259" />
    <path
       d="m 189.725,52.275 a 1,1 0 0 0 1,1"
       id="path1260" />
    <path
       d="m 233.631,128.5294 18.8884,-14.529"
       id="path1261" />
    <path
       d="M 253.3,112.4152 V 72.85"
       id="path1262" />
    <path
       d="M 251.3,70.85 H 209.2752"
       id="path1263" />
    <path
       d="m 233.631,128.5294 a 2,2 0 0 0 -0.66,0.9012"
       id="path1264" />
    <path
       d="M 252.5194,114.0004 A 2,2 0 0 0 253.3,112.4152"
       id="path1265" />
    <path
       d="m 253.3,72.85 a 2,2 0 0 0 -2,-2"
       id="path1266" />
    <path
       d="m 93,157 h 14"
       id="path1267" />
    <path
       d="M 107,157 V 143"
       id="path1268" />
    <path
       d="M 107,143 H 93"
       id="path1269" />
    <path
       d="m 93,143 v 14"
       id="path1270" />
    <path
       d="m 93,137.45 h 14"
       id="path1271" />
    <path
       d="m 107,137.45 v -14"
       id="path1272" />
    <path
       d="M 107,123.45 H 93"
       id="path1273" />
    <path
       d="m 93,123.45 v 14"
       id="path1274" />
    <path
       d="m 93,117.9 h 14"
       id="path1275" />
    <path
       d="m 107,117.9 v -14"
       id="path1276" />
    <path
       d="M 107,103.9 H 93"
       id="path1277" />
    <path
       d="m 93,103.9 v 14"
       id="path1278" />
    <path
       d="m 93,98.35 h 14"
       id="path1279" />
    <path
       d="m 107,98.35 v -14"
       id="path1280" />
    <path
       d="M 107,84.35 H 93"
       id="path1281" />
    <path
       d="m 93,84.35 v 14"
       id="path1282" />
    <path
       d="m 93,78.8 h 14"
       id="path1283" />
    <path
       d="m 107,78.8 v -14"
       id="path1284" />
    <path
       d="M 107,64.8 H 93"
       id="path1285" />
    <path
       d="m 93,64.8 v 14"
       id="path1286" />
    <path
       d="m 112.55,157 h 14"
       id="path1287" />
    <path
       d="M 126.55,157 V 143"
       id="path1288" />
    <path
       d="m 126.55,143 h -14"
       id="path1289" />
    <path
       d="m 112.55,143 v 14"
       id="path1290" />
    <path
       d="m 112.55,137.45 h 14"
       id="path1291" />
    <path
       d="m 126.55,137.45 v -14"
       id="path1292" />
    <path
       d="m 126.55,123.45 h -14"
       id="path1293" />
    <path
       d="m 112.55,123.45 v 14"
       id="path1294" />
    <path
       d="m 112.55,117.9 h 14"
       id="path1295" />
    <path
       d="m 126.55,117.9 v -14"
       id="path1296" />
    <path
       d="m 126.55,103.9 h -14"
       id="path1297" />
    <path
       d="m 112.55,103.9 v 14"
       id="path1298" />
    <path
       d="m 112.55,98.35 h 14"
       id="path1299" />
    <path
       d="m 126.55,98.35 v -14"
       id="path1300" />
    <path
       d="m 126.55,84.35 h -14"
       id="path1301" />
    <path
       d="m 112.55,84.35 v 14"
       id="path1302" />
    <path
       d="m 112.55,78.8 h 14"
       id="path1303" />
    <path
       d="m 126.55,78.8 v -14"
       id="path1304" />
    <path
       d="m 126.55,64.8 h -14"
       id="path1305" />
    <path
       d="m 112.55,64.8 v 14"
       id="path1306" />
    <path
       d="m 132.1,125.45 h 14"
       id="path1307" />
    <path
       d="m 146.1,125.45 v -14"
       id="path1308" />
    <path
       d="m 146.1,111.45 h -14"
       id="path1309" />
    <path
       d="m 132.1,111.45 v 14"
       id="path1310" />
    <path
       d="m 132.1,105.9 h 14"
       id="path1311" />
    <path
       d="m 146.1,105.9 v -14"
       id="path1312" />
    <path
       d="m 146.1,91.9 h -14"
       id="path1313" />
    <path
       d="m 132.1,91.9 v 14"
       id="path1314" />
    <path
       d="m 132.1,86.35 h 14"
       id="path1315" />
    <path
       d="m 146.1,86.35 v -14"
       id="path1316" />
    <path
       d="m 146.1,72.35 h -14"
       id="path1317" />
    <path
       d="m 132.1,72.35 v 14"
       id="path1318" />
    <path
       d="m 132.1,66.8 h 14"
       id="path1319" />
    <path
       d="m 146.1,66.8 v -14"
       id="path1320" />
    <path
       d="m 146.1,52.8 h -14"
       id="path1321" />
    <path
       d="m 132.1,52.8 v 14"
       id="path1322" />
    <path
       d="m 151.65,120.45 h 14"
       id="path1323" />
    <path
       d="m 165.65,120.45 v -14"
       id="path1324" />
    <path
       d="m 165.65,106.45 h -14"
       id="path1325" />
    <path
       d="m 151.65,106.45 v 14"
       id="path1326" />
    <path
       d="m 151.65,100.9 h 14"
       id="path1327" />
    <path
       d="m 165.65,100.9 v -14"
       id="path1328" />
    <path
       d="m 165.65,86.9 h -14"
       id="path1329" />
    <path
       d="m 151.65,86.9 v 14"
       id="path1330" />
    <path
       d="m 151.65,81.35 h 14"
       id="path1331" />
    <path
       d="m 165.65,81.35 v -14"
       id="path1332" />
    <path
       d="m 165.65,67.35 h -14"
       id="path1333" />
    <path
       d="m 151.65,67.35 v 14"
       id="path1334" />
    <path
       d="m 151.65,61.8 h 14"
       id="path1335" />
    <path
       d="m 165.65,61.8 v -14"
       id="path1336" />
    <path
       d="m 165.65,47.8 h -14"
       id="path1337" />
    <path
       d="m 151.65,47.8 v 14"
       id="path1338" />
    <path
       d="m 171.2,128.45 h 14"
       id="path1339" />
    <path
       d="m 185.2,128.45 v -14"
       id="path1340" />
    <path
       d="m 185.2,114.45 h -14"
       id="path1341" />
    <path
       d="m 171.2,114.45 v 14"
       id="path1342" />
    <path
       d="m 171.2,108.9 h 14"
       id="path1343" />
    <path
       d="m 185.2,108.9 v -14"
       id="path1344" />
    <path
       d="m 185.2,94.9 h -14"
       id="path1345" />
    <path
       d="m 171.2,94.9 v 14"
       id="path1346" />
    <path
       d="m 171.2,89.35 h 14"
       id="path1347" />
    <path
       d="m 185.2,89.35 v -14"
       id="path1348" />
    <path
       d="m 185.2,75.35 h -14"
       id="path1349" />
    <path
       d="m 171.2,75.35 v 14"
       id="path1350" />
    <path
       d="m 171.2,69.8 h 14"
       id="path1351" />
    <path
       d="m 185.2,69.8 v -14"
       id="path1352" />
    <path
       d="m 185.2,55.8 h -14"
       id="path1353" />
    <path
       d="m 171.2,55.8 v 14"
       id="path1354" />
    <path
       d="m 190.75,130.45 h 14"
       id="path1355" />
    <path
       d="m 204.75,130.45 v -14"
       id="path1356" />
    <path
       d="m 204.75,116.45 h -14"
       id="path1357" />
    <path
       d="m 190.75,116.45 v 14"
       id="path1358" />
    <path
       d="m 190.75,110.9 h 14"
       id="path1359" />
    <path
       d="m 204.75,110.9 v -14"
       id="path1360" />
    <path
       d="m 204.75,96.9 h -14"
       id="path1361" />
    <path
       d="m 190.75,96.9 v 14"
       id="path1362" />
    <path
       d="m 190.75,91.35 h 14"
       id="path1363" />
    <path
       d="m 204.75,91.35 v -14"
       id="path1364" />
    <path
       d="m 204.75,77.35 h -14"
       id="path1365" />
    <path
       d="m 190.75,77.35 v 14"
       id="path1366" />
    <path
       d="m 190.75,71.8 h 14"
       id="path1367" />
    <path
       d="m 204.75,71.8 v -14"
       id="path1368" />
    <path
       d="m 204.75,57.8 h -14"
       id="path1369" />
    <path
       d="m 190.75,57.8 v 14"
       id="path1370" />
    <path
       d="m 210.3,110.9 h 14"
       id="path1371" />
    <path
       d="m 224.3,110.9 v -14"
       id="path1372" />
    <path
       d="m 224.3,96.9 h -14"
       id="path1373" />
    <path
       d="m 210.3,96.9 v 14"
       id="path1374" />
    <path
       d="m 210.3,91.35 h 14"
       id="path1375" />
    <path
       d="m 224.3,91.35 v -14"
       id="path1376" />
    <path
       d="m 224.3,77.35 h -14"
       id="path1377" />
    <path
       d="m 210.3,77.35 v 14"
       id="path1378" />
    <path
       d="m 142.15,151 h 14"
       id="path1379" />
    <path
       d="M 156.15,151 V 137"
       id="path1380" />
    <path
       d="m 156.15,137 h -14"
       id="path1381" />
    <path
       d="m 142.15,137 v 14"
       id="path1382" />
    <path
       d="m 161.7,150 h 14"
       id="path1383" />
    <path
       d="M 175.7,150 V 136"
       id="path1384" />
    <path
       d="m 175.7,136 h -14"
       id="path1385" />
    <path
       d="m 161.7,136 v 14"
       id="path1386" />
    <path
       d="m 181.25,152 h 14"
       id="path1387" />
    <path
       d="M 195.25,152 V 138"
       id="path1388" />
    <path
       d="m 195.25,138 h -14"
       id="path1389" />
    <path
       d="m 181.25,138 v 14"
       id="path1390" />
    <path
       d="m 221.4337,147.972 4.7883,-13.1557"
       id="path1391" />
    <path
       d="M 226.222,134.8163 213.0663,130.028"
       id="path1392" />
    <path
       d="m 213.0663,130.028 -4.7883,13.1557"
       id="path1393" />
    <path
       d="m 208.278,143.1837 13.1557,4.7883"
       id="path1394" />
  </g>
</svg>
