  0
SECTION
  2
HEADER
  9
$ACADVER
  1
AC1014
  9
$HANDSEED
  5
FFFF
  9
$INSUNITS
 70
     4
  9
$MEASUREMENT
 70
     1
  0
ENDSEC
  0
SECTION
  2
TABLES
  0
TABLE
  2
VPORT
  5
8
330
0
100
AcDbSymbolTable
 70
     4
  0
VPORT
  5
2E
330
8
100
AcDbSymbolTableRecord
100
AcDbViewportTableRecord
  2
*ACTIVE
 70
     0
 10
0.0
 20
0.0
 11
1.0
 21
1.0
 12
210.0
 22
148.5
 13
0.0
 23
0.0
 14
10.0
 24
10.0
 15
10.0
 25
10.0
 16
0.0
 26
0.0
 36
1.0
 17
0.0
 27
0.0
 37
0.0
 40
341.0
 41
1.24
 42
50.0
 43
0.0
 44
0.0
 50
0.0
 51
0.0
 71
     0
 72
   100
 73
     1
 74
     3
 75
     0
 76
     0
 77
     0
 78
     0
  0
ENDTAB
  0
TABLE
  2
LTYPE
  5
5
330
0
100
AcDbSymbolTable
 70
     1
  0
LTYPE
  5
14
330
5
100
AcDbSymbolTableRecord
100
AcDbLinetypeTableRecord
  2
BYBLOCK
 70
     0
  3

 72
    65
 73
     0
 40
0.0
  0
LTYPE
  5
15
330
5
100
AcDbSymbolTableRecord
100
AcDbLinetypeTableRecord
  2
BYLAYER
 70
     0
  3

 72
    65
 73
     0
 40
0.0
  0
LTYPE
  5
16
330
5
100
AcDbSymbolTableRecord
100
AcDbLinetypeTableRecord
  2
CONTINUOUS
 70
     0
  3
Solid line
 72
    65
 73
     0
 40
0.0
  0
ENDTAB
  0
TABLE
  2
LAYER
  5
2
100
AcDbSymbolTable
 70
1
  0
LAYER
  5
50
100
AcDbSymbolTableRecord
100
AcDbLayerTableRecord
  2
0
 70
0
  6
CONTINUOUS
  0
ENDTAB
  0
TABLE
  2
STYLE
  5
3
330
0
100
AcDbSymbolTable
 70
     1
  0
STYLE
  5
11
330
3
100
AcDbSymbolTableRecord
100
AcDbTextStyleTableRecord
  2
STANDARD
 70
     0
 40
0.0
 41
1.0
 50
0.0
 71
     0
 42
2.5
  3
txt
  4

  0
ENDTAB
  0
TABLE
  2
VIEW
  5
6
330
0
100
AcDbSymbolTable
 70
     0
  0
ENDTAB
  0
TABLE
  2
UCS
  5
7
330
0
100
AcDbSymbolTable
 70
     0
  0
ENDTAB
  0
TABLE
  2
APPID
  5
9
330
0
100
AcDbSymbolTable
 70
     2
  0
APPID
  5
12
330
9
100
AcDbSymbolTableRecord
100
AcDbRegAppTableRecord
  2
ACAD
 70
     0
  0
ENDTAB
  0
TABLE
  2
DIMSTYLE
  5
A
330
0
100
AcDbSymbolTable
 70
     1
  0
DIMSTYLE
105
27
330
A
100
AcDbSymbolTableRecord
100
AcDbDimStyleTableRecord
  2
ISO-25
 70
     0
  3

  4

  5

  6

  7

 40
1.0
 41
2.5
 42
0.625
 43
3.75
 44
1.25
 45
0.0
 46
0.0
 47
0.0
 48
0.0
140
2.5
141
2.5
142
0.0
143
0.03937007874016
144
1.0
145
0.0
146
1.0
147
0.625
 71
     0
 72
     0
 73
     0
 74
     0
 75
     0
 76
     0
 77
     1
 78
     8
170
     0
171
     3
172
     1
173
     0
174
     0
175
     0
176
     0
177
     0
178
     0
270
     2
271
     2
272
     2
273
     2
274
     3
340
11
275
     0
280
     0
281
     0
282
     0
283
     0
284
     8
285
     0
286
     0
287
     3
288
     0
  0
ENDTAB
  0
TABLE
  2
BLOCK_RECORD
  5
1
330
0
100
AcDbSymbolTable
 70
     1
  0
BLOCK_RECORD
  5
1F
330
1
100
AcDbSymbolTableRecord
100
AcDbBlockTableRecord
  2
*MODEL_SPACE
  0
BLOCK_RECORD
  5
1B
330
1
100
AcDbSymbolTableRecord
100
AcDbBlockTableRecord
  2
*PAPER_SPACE
  0
ENDTAB
  0
ENDSEC
  0
SECTION
  2
BLOCKS
  0
BLOCK
  5
20
330
1F
100
AcDbEntity
  8
0
100
AcDbBlockBegin
  2
*MODEL_SPACE
 70
     0
 10
0.0
 20
0.0
 30
0.0
  3
*MODEL_SPACE
  1

  0
ENDBLK
  5
21
330
1F
100
AcDbEntity
  8
0
100
AcDbBlockEnd
  0
BLOCK
  5
1C
330
1B
100
AcDbEntity
 67
     1
  8
0
100
AcDbBlockBegin
  2
*PAPER_SPACE
  1

  0
ENDBLK
  5
1D
330
1B
100
AcDbEntity
 67
     1
  8
0
100
AcDbBlockEnd
  0
ENDSEC
  0
SECTION
  2
ENTITIES
  0
SPLINE
  5
100
100
AcDbEntity
  8
0
 62
7
100
AcDbSpline
 70
8
 71
3
 72
8
 73
4
 74
0
 40
0
 40
0
 40
0
 40
0
 40
1
 40
1
 40
1
 40
1
 10
70.249990
 20
41.892490
 30
0.0
 10
69.238834
 20
41.892490
 30
0.0
 10
68.327244
 20
41.283385
 30
0.0
 10
67.940291
 20
40.349199
 30
0.0
  0
SPLINE
  5
101
100
AcDbEntity
  8
0
 62
7
100
AcDbSpline
 70
8
 71
3
 72
8
 73
4
 74
0
 40
0
 40
0
 40
0
 40
0
 40
1
 40
1
 40
1
 40
1
 10
67.940291
 20
40.349199
 30
0.0
 10
67.553339
 20
39.415013
 30
0.0
 10
67.767228
 20
38.339718
 30
0.0
 10
68.482223
 20
37.624723
 30
0.0
  0
SPLINE
  5
102
100
AcDbEntity
  8
0
 62
7
100
AcDbSpline
 70
8
 71
3
 72
8
 73
4
 74
0
 40
0
 40
0
 40
0
 40
0
 40
1
 40
1
 40
1
 40
1
 10
68.482223
 20
37.624723
 30
0.0
 10
69.197218
 20
36.909728
 30
0.0
 10
70.272513
 20
36.695839
 30
0.0
 10
71.206699
 20
37.082791
 30
0.0
  0
SPLINE
  5
103
100
AcDbEntity
  8
0
 62
7
100
AcDbSpline
 70
8
 71
3
 72
8
 73
4
 74
0
 40
0
 40
0
 40
0
 40
0
 40
1
 40
1
 40
1
 40
1
 10
71.206699
 20
37.082791
 30
0.0
 10
72.140885
 20
37.469744
 30
0.0
 10
72.749990
 20
38.381334
 30
0.0
 10
72.749990
 20
39.392490
 30
0.0
  0
SPLINE
  5
104
100
AcDbEntity
  8
0
 62
7
100
AcDbSpline
 70
8
 71
3
 72
8
 73
4
 74
0
 40
0
 40
0
 40
0
 40
0
 40
1
 40
1
 40
1
 40
1
 10
72.749990
 20
39.392490
 30
0.0
 10
72.749990
 20
40.055531
 30
0.0
 10
72.486598
 20
40.691416
 30
0.0
 10
72.017757
 20
41.160257
 30
0.0
  0
SPLINE
  5
105
100
AcDbEntity
  8
0
 62
7
100
AcDbSpline
 70
8
 71
3
 72
8
 73
4
 74
0
 40
0
 40
0
 40
0
 40
0
 40
1
 40
1
 40
1
 40
1
 10
72.017757
 20
41.160257
 30
0.0
 10
71.548916
 20
41.629098
 30
0.0
 10
70.913031
 20
41.892490
 30
0.0
 10
70.249990
 20
41.892490
 30
0.0
  0
SPLINE
  5
106
100
AcDbEntity
  8
0
 62
7
100
AcDbSpline
 70
8
 71
3
 72
8
 73
4
 74
0
 40
0
 40
0
 40
0
 40
0
 40
1
 40
1
 40
1
 40
1
 10
21.625000
 20
48.442490
 30
0.0
 10
20.613844
 20
48.442490
 30
0.0
 10
19.702254
 20
47.833385
 30
0.0
 10
19.315301
 20
46.899199
 30
0.0
  0
SPLINE
  5
107
100
AcDbEntity
  8
0
 62
7
100
AcDbSpline
 70
8
 71
3
 72
8
 73
4
 74
0
 40
0
 40
0
 40
0
 40
0
 40
1
 40
1
 40
1
 40
1
 10
19.315301
 20
46.899199
 30
0.0
 10
18.928349
 20
45.965013
 30
0.0
 10
19.142238
 20
44.889718
 30
0.0
 10
19.857233
 20
44.174723
 30
0.0
  0
SPLINE
  5
108
100
AcDbEntity
  8
0
 62
7
100
AcDbSpline
 70
8
 71
3
 72
8
 73
4
 74
0
 40
0
 40
0
 40
0
 40
0
 40
1
 40
1
 40
1
 40
1
 10
19.857233
 20
44.174723
 30
0.0
 10
20.572228
 20
43.459728
 30
0.0
 10
21.647523
 20
43.245839
 30
0.0
 10
22.581709
 20
43.632791
 30
0.0
  0
SPLINE
  5
109
100
AcDbEntity
  8
0
 62
7
100
AcDbSpline
 70
8
 71
3
 72
8
 73
4
 74
0
 40
0
 40
0
 40
0
 40
0
 40
1
 40
1
 40
1
 40
1
 10
22.581709
 20
43.632791
 30
0.0
 10
23.515895
 20
44.019744
 30
0.0
 10
24.125000
 20
44.931334
 30
0.0
 10
24.125000
 20
45.942490
 30
0.0
  0
SPLINE
  5
10a
100
AcDbEntity
  8
0
 62
7
100
AcDbSpline
 70
8
 71
3
 72
8
 73
4
 74
0
 40
0
 40
0
 40
0
 40
0
 40
1
 40
1
 40
1
 40
1
 10
24.125000
 20
45.942490
 30
0.0
 10
24.125000
 20
46.605531
 30
0.0
 10
23.861608
 20
47.241416
 30
0.0
 10
23.392767
 20
47.710257
 30
0.0
  0
SPLINE
  5
10b
100
AcDbEntity
  8
0
 62
7
100
AcDbSpline
 70
8
 71
3
 72
8
 73
4
 74
0
 40
0
 40
0
 40
0
 40
0
 40
1
 40
1
 40
1
 40
1
 10
23.392767
 20
47.710257
 30
0.0
 10
22.923926
 20
48.179098
 30
0.0
 10
22.288041
 20
48.442490
 30
0.0
 10
21.625000
 20
48.442490
 30
0.0
  0
LWPOLYLINE
  5
10c
100
AcDbEntity
  8
0
 62
7
100
AcDbPolyline
 90
1
 70
1
 10
70.249990
 20
41.892490
 30
0.0
  0
SPLINE
  5
10d
100
AcDbEntity
  8
0
 62
7
100
AcDbSpline
 70
8
 71
3
 72
8
 73
4
 74
0
 40
0
 40
0
 40
0
 40
0
 40
1
 40
1
 40
1
 40
1
 10
41.175000
 20
99.542493
 30
0.0
 10
40.163844
 20
99.542493
 30
0.0
 10
39.252254
 20
98.933388
 30
0.0
 10
38.865301
 20
97.999202
 30
0.0
  0
SPLINE
  5
10e
100
AcDbEntity
  8
0
 62
7
100
AcDbSpline
 70
8
 71
3
 72
8
 73
4
 74
0
 40
0
 40
0
 40
0
 40
0
 40
1
 40
1
 40
1
 40
1
 10
38.865301
 20
97.999202
 30
0.0
 10
38.478349
 20
97.065016
 30
0.0
 10
38.692238
 20
95.989721
 30
0.0
 10
39.407233
 20
95.274726
 30
0.0
  0
SPLINE
  5
10f
100
AcDbEntity
  8
0
 62
7
100
AcDbSpline
 70
8
 71
3
 72
8
 73
4
 74
0
 40
0
 40
0
 40
0
 40
0
 40
1
 40
1
 40
1
 40
1
 10
39.407233
 20
95.274726
 30
0.0
 10
40.122228
 20
94.559731
 30
0.0
 10
41.197523
 20
94.345842
 30
0.0
 10
42.131709
 20
94.732794
 30
0.0
  0
SPLINE
  5
110
100
AcDbEntity
  8
0
 62
7
100
AcDbSpline
 70
8
 71
3
 72
8
 73
4
 74
0
 40
0
 40
0
 40
0
 40
0
 40
1
 40
1
 40
1
 40
1
 10
42.131709
 20
94.732794
 30
0.0
 10
43.065895
 20
95.119747
 30
0.0
 10
43.675000
 20
96.031337
 30
0.0
 10
43.675000
 20
97.042493
 30
0.0
  0
SPLINE
  5
111
100
AcDbEntity
  8
0
 62
7
100
AcDbSpline
 70
8
 71
3
 72
8
 73
4
 74
0
 40
0
 40
0
 40
0
 40
0
 40
1
 40
1
 40
1
 40
1
 10
43.675000
 20
97.042493
 30
0.0
 10
43.675000
 20
97.705534
 30
0.0
 10
43.411608
 20
98.341419
 30
0.0
 10
42.942767
 20
98.810260
 30
0.0
  0
SPLINE
  5
112
100
AcDbEntity
  8
0
 62
7
100
AcDbSpline
 70
8
 71
3
 72
8
 73
4
 74
0
 40
0
 40
0
 40
0
 40
0
 40
1
 40
1
 40
1
 40
1
 10
42.942767
 20
98.810260
 30
0.0
 10
42.473926
 20
99.279101
 30
0.0
 10
41.838041
 20
99.542493
 30
0.0
 10
41.175000
 20
99.542493
 30
0.0
  0
LWPOLYLINE
  5
113
100
AcDbEntity
  8
0
 62
7
100
AcDbPolyline
 90
1
 70
1
 10
21.625000
 20
48.442490
 30
0.0
  0
SPLINE
  5
114
100
AcDbEntity
  8
0
 62
7
100
AcDbSpline
 70
8
 71
3
 72
8
 73
4
 74
0
 40
0
 40
0
 40
0
 40
0
 40
1
 40
1
 40
1
 40
1
 10
100.325010
 20
93.542493
 30
0.0
 10
99.313854
 20
93.542493
 30
0.0
 10
98.402264
 20
92.933388
 30
0.0
 10
98.015311
 20
91.999202
 30
0.0
  0
SPLINE
  5
115
100
AcDbEntity
  8
0
 62
7
100
AcDbSpline
 70
8
 71
3
 72
8
 73
4
 74
0
 40
0
 40
0
 40
0
 40
0
 40
1
 40
1
 40
1
 40
1
 10
98.015311
 20
91.999202
 30
0.0
 10
97.628359
 20
91.065016
 30
0.0
 10
97.842248
 20
89.989721
 30
0.0
 10
98.557243
 20
89.274726
 30
0.0
  0
SPLINE
  5
116
100
AcDbEntity
  8
0
 62
7
100
AcDbSpline
 70
8
 71
3
 72
8
 73
4
 74
0
 40
0
 40
0
 40
0
 40
0
 40
1
 40
1
 40
1
 40
1
 10
98.557243
 20
89.274726
 30
0.0
 10
99.272238
 20
88.559731
 30
0.0
 10
100.347533
 20
88.345842
 30
0.0
 10
101.281719
 20
88.732794
 30
0.0
  0
SPLINE
  5
117
100
AcDbEntity
  8
0
 62
7
100
AcDbSpline
 70
8
 71
3
 72
8
 73
4
 74
0
 40
0
 40
0
 40
0
 40
0
 40
1
 40
1
 40
1
 40
1
 10
101.281719
 20
88.732794
 30
0.0
 10
102.215905
 20
89.119747
 30
0.0
 10
102.825010
 20
90.031337
 30
0.0
 10
102.825010
 20
91.042493
 30
0.0
  0
SPLINE
  5
118
100
AcDbEntity
  8
0
 62
7
100
AcDbSpline
 70
8
 71
3
 72
8
 73
4
 74
0
 40
0
 40
0
 40
0
 40
0
 40
1
 40
1
 40
1
 40
1
 10
102.825010
 20
91.042493
 30
0.0
 10
102.825010
 20
91.705534
 30
0.0
 10
102.561618
 20
92.341419
 30
0.0
 10
102.092777
 20
92.810260
 30
0.0
  0
SPLINE
  5
119
100
AcDbEntity
  8
0
 62
7
100
AcDbSpline
 70
8
 71
3
 72
8
 73
4
 74
0
 40
0
 40
0
 40
0
 40
0
 40
1
 40
1
 40
1
 40
1
 10
102.092777
 20
92.810260
 30
0.0
 10
101.623936
 20
93.279101
 30
0.0
 10
100.988051
 20
93.542493
 30
0.0
 10
100.325010
 20
93.542493
 30
0.0
  0
LWPOLYLINE
  5
11a
100
AcDbEntity
  8
0
 62
7
100
AcDbPolyline
 90
1
 70
1
 10
41.175000
 20
99.542493
 30
0.0
  0
SPLINE
  5
11b
100
AcDbEntity
  8
0
 62
7
100
AcDbSpline
 70
8
 71
3
 72
8
 73
4
 74
0
 40
0
 40
0
 40
0
 40
0
 40
1
 40
1
 40
1
 40
1
 10
122.874990
 20
49.417490
 30
0.0
 10
121.863834
 20
49.417490
 30
0.0
 10
120.952244
 20
48.808385
 30
0.0
 10
120.565291
 20
47.874199
 30
0.0
  0
SPLINE
  5
11c
100
AcDbEntity
  8
0
 62
7
100
AcDbSpline
 70
8
 71
3
 72
8
 73
4
 74
0
 40
0
 40
0
 40
0
 40
0
 40
1
 40
1
 40
1
 40
1
 10
120.565291
 20
47.874199
 30
0.0
 10
120.178339
 20
46.940013
 30
0.0
 10
120.392228
 20
45.864718
 30
0.0
 10
121.107223
 20
45.149723
 30
0.0
  0
SPLINE
  5
11d
100
AcDbEntity
  8
0
 62
7
100
AcDbSpline
 70
8
 71
3
 72
8
 73
4
 74
0
 40
0
 40
0
 40
0
 40
0
 40
1
 40
1
 40
1
 40
1
 10
121.107223
 20
45.149723
 30
0.0
 10
121.822218
 20
44.434728
 30
0.0
 10
122.897513
 20
44.220839
 30
0.0
 10
123.831699
 20
44.607791
 30
0.0
  0
SPLINE
  5
11e
100
AcDbEntity
  8
0
 62
7
100
AcDbSpline
 70
8
 71
3
 72
8
 73
4
 74
0
 40
0
 40
0
 40
0
 40
0
 40
1
 40
1
 40
1
 40
1
 10
123.831699
 20
44.607791
 30
0.0
 10
124.765885
 20
44.994744
 30
0.0
 10
125.374990
 20
45.906334
 30
0.0
 10
125.374990
 20
46.917490
 30
0.0
  0
SPLINE
  5
11f
100
AcDbEntity
  8
0
 62
7
100
AcDbSpline
 70
8
 71
3
 72
8
 73
4
 74
0
 40
0
 40
0
 40
0
 40
0
 40
1
 40
1
 40
1
 40
1
 10
125.374990
 20
46.917490
 30
0.0
 10
125.374990
 20
47.580531
 30
0.0
 10
125.111598
 20
48.216416
 30
0.0
 10
124.642757
 20
48.685257
 30
0.0
  0
SPLINE
  5
120
100
AcDbEntity
  8
0
 62
7
100
AcDbSpline
 70
8
 71
3
 72
8
 73
4
 74
0
 40
0
 40
0
 40
0
 40
0
 40
1
 40
1
 40
1
 40
1
 10
124.642757
 20
48.685257
 30
0.0
 10
124.173916
 20
49.154098
 30
0.0
 10
123.538031
 20
49.417490
 30
0.0
 10
122.874990
 20
49.417490
 30
0.0
  0
LWPOLYLINE
  5
121
100
AcDbEntity
  8
0
 62
7
100
AcDbPolyline
 90
1
 70
1
 10
100.325010
 20
93.542493
 30
0.0
  0
LWPOLYLINE
  5
122
100
AcDbEntity
  8
0
 62
7
100
AcDbPolyline
 90
1
 70
1
 10
122.874990
 20
49.417490
 30
0.0
  0
LWPOLYLINE
  5
123
100
AcDbEntity
  8
0
 62
7
100
AcDbPolyline
 90
3
 70
0
 10
153.106900
 20
41.734190
 30
0.0
 10
150.033700
 20
39.333090
 30
0.0
 10
148.494500
 20
41.303090
 30
0.0
  0
LWPOLYLINE
  5
124
100
AcDbEntity
  8
0
 62
7
100
AcDbPolyline
 90
2
 70
0
 10
151.567800
 20
43.704190
 30
0.0
 10
153.106900
 20
41.734190
 30
0.0
  0
LWPOLYLINE
  5
125
100
AcDbEntity
  8
0
 62
1
100
AcDbPolyline
 90
4
 70
1
 10
163.900000
 20
95.017490
 30
0.0
 10
141.900000
 20
95.017490
 30
0.0
 10
141.900000
 20
59.517490
 30
0.0
 10
163.900000
 20
59.517490
 30
0.0
  0
LWPOLYLINE
  5
126
100
AcDbEntity
  8
0
 62
7
100
AcDbPolyline
 90
4
 70
1
 10
156.456000
 20
91.241490
 30
0.0
 10
149.090000
 20
91.241490
 30
0.0
 10
149.090000
 20
96.321490
 30
0.0
 10
156.456000
 20
96.321490
 30
0.0
  0
LWPOLYLINE
  5
127
100
AcDbEntity
  8
0
 62
1
100
AcDbPolyline
 90
4
 70
1
 10
160.229000
 20
48.526990
 30
0.0
 10
157.865000
 20
46.679990
 30
0.0
 10
156.941500
 20
47.861990
 30
0.0
 10
159.305500
 20
49.708990
 30
0.0
  0
LWPOLYLINE
  5
128
100
AcDbEntity
  8
0
 62
7
100
AcDbPolyline
 90
2
 70
0
 10
2.075000
 20
4.842490
 30
0.0
 10
40.675000
 20
4.842490
 30
0.0
  0
LWPOLYLINE
  5
129
100
AcDbEntity
  8
0
 62
7
100
AcDbPolyline
 90
2
 70
0
 10
0.075000
 20
6.842490
 30
0.0
 10
0.075000
 20
104.092490
 30
0.0
  0
LWPOLYLINE
  5
12a
100
AcDbEntity
  8
0
 62
7
100
AcDbPolyline
 90
2
 70
0
 10
2.075000
 20
106.092490
 30
0.0
 10
37.175000
 20
106.092490
 30
0.0
  0
LWPOLYLINE
  5
12b
100
AcDbEntity
  8
0
 62
7
100
AcDbPolyline
 90
2
 70
0
 10
42.675000
 20
6.842490
 30
0.0
 10
42.675000
 20
34.392490
 30
0.0
  0
LWPOLYLINE
  5
12c
100
AcDbEntity
  8
0
 62
7
100
AcDbPolyline
 90
2
 70
0
 10
44.675000
 20
36.392490
 30
0.0
 10
47.250000
 20
36.392490
 30
0.0
  0
LWPOLYLINE
  5
12d
100
AcDbEntity
  8
0
 62
7
100
AcDbPolyline
 90
2
 70
0
 10
56.725000
 20
118.092490
 30
0.0
 10
41.175000
 20
118.092490
 30
0.0
  0
LWPOLYLINE
  5
12e
100
AcDbEntity
  8
0
 62
7
100
AcDbPolyline
 90
2
 70
0
 10
39.175000
 20
116.092490
 30
0.0
 10
39.175000
 20
108.092490
 30
0.0
  0
LWPOLYLINE
  5
12f
100
AcDbEntity
  8
0
 62
7
100
AcDbPolyline
 90
2
 70
0
 10
81.775000
 20
117.092490
 30
0.0
 10
81.775000
 20
121.092490
 30
0.0
  0
LWPOLYLINE
  5
130
100
AcDbEntity
  8
0
 62
7
100
AcDbPolyline
 90
2
 70
0
 10
79.775000
 20
123.092490
 30
0.0
 10
60.725000
 20
123.092490
 30
0.0
  0
LWPOLYLINE
  5
131
100
AcDbEntity
  8
0
 62
7
100
AcDbPolyline
 90
2
 70
0
 10
58.725000
 20
121.092490
 30
0.0
 10
58.725000
 20
120.092490
 30
0.0
  0
LWPOLYLINE
  5
132
100
AcDbEntity
  8
0
 62
7
100
AcDbPolyline
 90
3
 70
0
 10
101.325000
 20
114.092490
 30
0.0
 10
101.325000
 20
115.092490
 30
0.0
 10
83.775000
 20
115.092490
 30
0.0
  0
LWPOLYLINE
  5
133
100
AcDbEntity
  8
0
 62
7
100
AcDbPolyline
 90
2
 70
0
 10
120.875000
 20
95.542490
 30
0.0
 10
120.875000
 20
111.092490
 30
0.0
  0
SPLINE
  5
134
100
AcDbEntity
  8
0
 62
7
100
AcDbSpline
 70
8
 71
3
 72
8
 73
4
 74
0
 40
0
 40
0
 40
0
 40
0
 40
1
 40
1
 40
1
 40
1
 10
40.675000
 20
4.842490
 30
0.0
 10
41.205433
 20
4.842490
 30
0.0
 10
41.714141
 20
5.053204
 30
0.0
 10
42.089214
 20
5.428276
 30
0.0
  0
SPLINE
  5
135
100
AcDbEntity
  8
0
 62
7
100
AcDbSpline
 70
8
 71
3
 72
8
 73
4
 74
0
 40
0
 40
0
 40
0
 40
0
 40
1
 40
1
 40
1
 40
1
 10
42.089214
 20
5.428276
 30
0.0
 10
42.464286
 20
5.803349
 30
0.0
 10
42.675000
 20
6.312057
 30
0.0
 10
42.675000
 20
6.842490
 30
0.0
  0
SPLINE
  5
136
100
AcDbEntity
  8
0
 62
7
100
AcDbSpline
 70
8
 71
3
 72
8
 73
4
 74
0
 40
0
 40
0
 40
0
 40
0
 40
1
 40
1
 40
1
 40
1
 10
44.675000
 20
36.392490
 30
0.0
 10
44.144567
 20
36.392490
 30
0.0
 10
43.635859
 20
36.181776
 30
0.0
 10
43.260786
 20
35.806704
 30
0.0
  0
SPLINE
  5
137
100
AcDbEntity
  8
0
 62
7
100
AcDbSpline
 70
8
 71
3
 72
8
 73
4
 74
0
 40
0
 40
0
 40
0
 40
0
 40
1
 40
1
 40
1
 40
1
 10
43.260786
 20
35.806704
 30
0.0
 10
42.885714
 20
35.431631
 30
0.0
 10
42.675000
 20
34.922923
 30
0.0
 10
42.675000
 20
34.392490
 30
0.0
  0
SPLINE
  5
138
100
AcDbEntity
  8
0
 62
7
100
AcDbSpline
 70
8
 71
3
 72
8
 73
4
 74
0
 40
0
 40
0
 40
0
 40
0
 40
1
 40
1
 40
1
 40
1
 10
120.875000
 20
95.542490
 30
0.0
 10
120.875015
 20
95.534156
 30
0.0
 10
120.875081
 20
95.525823
 30
0.0
 10
120.875200
 20
95.517490
 30
0.0
  0
SPLINE
  5
139
100
AcDbEntity
  8
0
 62
7
100
AcDbSpline
 70
8
 71
3
 72
8
 73
4
 74
0
 40
0
 40
0
 40
0
 40
0
 40
1
 40
1
 40
1
 40
1
 10
120.875000
 20
111.092490
 30
0.0
 10
120.875000
 20
111.622923
 30
0.0
 10
120.664286
 20
112.131631
 30
0.0
 10
120.289214
 20
112.506704
 30
0.0
  0
SPLINE
  5
13a
100
AcDbEntity
  8
0
 62
7
100
AcDbSpline
 70
8
 71
3
 72
8
 73
4
 74
0
 40
0
 40
0
 40
0
 40
0
 40
1
 40
1
 40
1
 40
1
 10
120.289214
 20
112.506704
 30
0.0
 10
119.914141
 20
112.881776
 30
0.0
 10
119.405433
 20
113.092490
 30
0.0
 10
118.875000
 20
113.092490
 30
0.0
  0
SPLINE
  5
13b
100
AcDbEntity
  8
0
 62
7
100
AcDbSpline
 70
8
 71
3
 72
8
 73
4
 74
0
 40
0
 40
0
 40
0
 40
0
 40
1
 40
1
 40
1
 40
1
 10
81.775000
 20
117.092490
 30
0.0
 10
81.775000
 20
116.562057
 30
0.0
 10
81.985714
 20
116.053349
 30
0.0
 10
82.360786
 20
115.678276
 30
0.0
  0
SPLINE
  5
13c
100
AcDbEntity
  8
0
 62
7
100
AcDbSpline
 70
8
 71
3
 72
8
 73
4
 74
0
 40
0
 40
0
 40
0
 40
0
 40
1
 40
1
 40
1
 40
1
 10
82.360786
 20
115.678276
 30
0.0
 10
82.735859
 20
115.303204
 30
0.0
 10
83.244567
 20
115.092490
 30
0.0
 10
83.775000
 20
115.092490
 30
0.0
  0
SPLINE
  5
13d
100
AcDbEntity
  8
0
 62
7
100
AcDbSpline
 70
8
 71
3
 72
8
 73
4
 74
0
 40
0
 40
0
 40
0
 40
0
 40
1
 40
1
 40
1
 40
1
 10
81.775000
 20
121.092490
 30
0.0
 10
81.775000
 20
121.622923
 30
0.0
 10
81.564286
 20
122.131631
 30
0.0
 10
81.189214
 20
122.506704
 30
0.0
  0
SPLINE
  5
13e
100
AcDbEntity
  8
0
 62
7
100
AcDbSpline
 70
8
 71
3
 72
8
 73
4
 74
0
 40
0
 40
0
 40
0
 40
0
 40
1
 40
1
 40
1
 40
1
 10
81.189214
 20
122.506704
 30
0.0
 10
80.814141
 20
122.881776
 30
0.0
 10
80.305433
 20
123.092490
 30
0.0
 10
79.775000
 20
123.092490
 30
0.0
  0
SPLINE
  5
13f
100
AcDbEntity
  8
0
 62
7
100
AcDbSpline
 70
8
 71
3
 72
8
 73
4
 74
0
 40
0
 40
0
 40
0
 40
0
 40
1
 40
1
 40
1
 40
1
 10
60.725000
 20
123.092490
 30
0.0
 10
60.194567
 20
123.092490
 30
0.0
 10
59.685859
 20
122.881776
 30
0.0
 10
59.310786
 20
122.506704
 30
0.0
  0
SPLINE
  5
140
100
AcDbEntity
  8
0
 62
7
100
AcDbSpline
 70
8
 71
3
 72
8
 73
4
 74
0
 40
0
 40
0
 40
0
 40
0
 40
1
 40
1
 40
1
 40
1
 10
59.310786
 20
122.506704
 30
0.0
 10
58.935714
 20
122.131631
 30
0.0
 10
58.725000
 20
121.622923
 30
0.0
 10
58.725000
 20
121.092490
 30
0.0
  0
SPLINE
  5
141
100
AcDbEntity
  8
0
 62
7
100
AcDbSpline
 70
8
 71
3
 72
8
 73
4
 74
0
 40
0
 40
0
 40
0
 40
0
 40
1
 40
1
 40
1
 40
1
 10
56.725000
 20
118.092490
 30
0.0
 10
57.255433
 20
118.092490
 30
0.0
 10
57.764141
 20
118.303204
 30
0.0
 10
58.139214
 20
118.678276
 30
0.0
  0
SPLINE
  5
142
100
AcDbEntity
  8
0
 62
7
100
AcDbSpline
 70
8
 71
3
 72
8
 73
4
 74
0
 40
0
 40
0
 40
0
 40
0
 40
1
 40
1
 40
1
 40
1
 10
58.139214
 20
118.678276
 30
0.0
 10
58.514286
 20
119.053349
 30
0.0
 10
58.725000
 20
119.562057
 30
0.0
 10
58.725000
 20
120.092490
 30
0.0
  0
SPLINE
  5
143
100
AcDbEntity
  8
0
 62
7
100
AcDbSpline
 70
8
 71
3
 72
8
 73
4
 74
0
 40
0
 40
0
 40
0
 40
0
 40
1
 40
1
 40
1
 40
1
 10
41.175000
 20
118.092490
 30
0.0
 10
40.644567
 20
118.092490
 30
0.0
 10
40.135859
 20
117.881776
 30
0.0
 10
39.760786
 20
117.506704
 30
0.0
  0
SPLINE
  5
144
100
AcDbEntity
  8
0
 62
7
100
AcDbSpline
 70
8
 71
3
 72
8
 73
4
 74
0
 40
0
 40
0
 40
0
 40
0
 40
1
 40
1
 40
1
 40
1
 10
39.760786
 20
117.506704
 30
0.0
 10
39.385714
 20
117.131631
 30
0.0
 10
39.175000
 20
116.622923
 30
0.0
 10
39.175000
 20
116.092490
 30
0.0
  0
SPLINE
  5
145
100
AcDbEntity
  8
0
 62
7
100
AcDbSpline
 70
8
 71
3
 72
8
 73
4
 74
0
 40
0
 40
0
 40
0
 40
0
 40
1
 40
1
 40
1
 40
1
 10
37.175000
 20
106.092490
 30
0.0
 10
37.705433
 20
106.092490
 30
0.0
 10
38.214141
 20
106.303204
 30
0.0
 10
38.589214
 20
106.678276
 30
0.0
  0
SPLINE
  5
146
100
AcDbEntity
  8
0
 62
7
100
AcDbSpline
 70
8
 71
3
 72
8
 73
4
 74
0
 40
0
 40
0
 40
0
 40
0
 40
1
 40
1
 40
1
 40
1
 10
38.589214
 20
106.678276
 30
0.0
 10
38.964286
 20
107.053349
 30
0.0
 10
39.175000
 20
107.562057
 30
0.0
 10
39.175000
 20
108.092490
 30
0.0
  0
SPLINE
  5
147
100
AcDbEntity
  8
0
 62
7
100
AcDbSpline
 70
8
 71
3
 72
8
 73
4
 74
0
 40
0
 40
0
 40
0
 40
0
 40
1
 40
1
 40
1
 40
1
 10
2.075000
 20
106.092490
 30
0.0
 10
1.544567
 20
106.092490
 30
0.0
 10
1.035859
 20
105.881776
 30
0.0
 10
0.660786
 20
105.506704
 30
0.0
  0
SPLINE
  5
148
100
AcDbEntity
  8
0
 62
7
100
AcDbSpline
 70
8
 71
3
 72
8
 73
4
 74
0
 40
0
 40
0
 40
0
 40
0
 40
1
 40
1
 40
1
 40
1
 10
0.660786
 20
105.506704
 30
0.0
 10
0.285714
 20
105.131631
 30
0.0
 10
0.075000
 20
104.622923
 30
0.0
 10
0.075000
 20
104.092490
 30
0.0
  0
SPLINE
  5
149
100
AcDbEntity
  8
0
 62
7
100
AcDbSpline
 70
8
 71
3
 72
8
 73
4
 74
0
 40
0
 40
0
 40
0
 40
0
 40
1
 40
1
 40
1
 40
1
 10
0.075000
 20
6.842490
 30
0.0
 10
0.075000
 20
6.312057
 30
0.0
 10
0.285714
 20
5.803349
 30
0.0
 10
0.660786
 20
5.428276
 30
0.0
  0
SPLINE
  5
14a
100
AcDbEntity
  8
0
 62
7
100
AcDbSpline
 70
8
 71
3
 72
8
 73
4
 74
0
 40
0
 40
0
 40
0
 40
0
 40
1
 40
1
 40
1
 40
1
 10
0.660786
 20
5.428276
 30
0.0
 10
1.035859
 20
5.053204
 30
0.0
 10
1.544567
 20
4.842490
 30
0.0
 10
2.075000
 20
4.842490
 30
0.0
  0
LWPOLYLINE
  5
14b
100
AcDbEntity
  8
0
 62
7
100
AcDbPolyline
 90
2
 70
0
 10
118.875000
 20
113.092490
 30
0.0
 10
102.325000
 20
113.092490
 30
0.0
  0
LWPOLYLINE
  5
14c
100
AcDbEntity
  8
0
 62
7
100
AcDbPolyline
 90
3
 70
0
 10
51.250000
 20
10.867490
 30
0.0
 10
72.250000
 20
10.867490
 30
0.0
 10
72.250000
 20
11.867490
 30
0.0
  0
LWPOLYLINE
  5
14d
100
AcDbEntity
  8
0
 62
7
100
AcDbPolyline
 90
2
 70
0
 10
49.250000
 20
34.392490
 30
0.0
 10
49.250000
 20
12.867490
 30
0.0
  0
LWPOLYLINE
  5
14e
100
AcDbEntity
  8
0
 62
7
100
AcDbPolyline
 90
2
 70
0
 10
72.250000
 20
11.867490
 30
0.0
 10
87.350000
 20
11.867490
 30
0.0
  0
LWPOLYLINE
  5
14f
100
AcDbEntity
  8
0
 62
7
100
AcDbPolyline
 90
2
 70
0
 10
88.350000
 20
9.867490
 30
0.0
 10
109.350000
 20
9.867490
 30
0.0
  0
LWPOLYLINE
  5
150
100
AcDbEntity
  8
0
 62
7
100
AcDbPolyline
 90
2
 70
0
 10
111.350000
 20
11.867490
 30
0.0
 10
111.350000
 20
12.400190
 30
0.0
  0
SPLINE
  5
151
100
AcDbEntity
  8
0
 62
7
100
AcDbSpline
 70
8
 71
3
 72
8
 73
4
 74
0
 40
0
 40
0
 40
0
 40
0
 40
1
 40
1
 40
1
 40
1
 10
49.250000
 20
34.392490
 30
0.0
 10
49.250000
 20
34.922923
 30
0.0
 10
49.039286
 20
35.431631
 30
0.0
 10
48.664214
 20
35.806704
 30
0.0
  0
SPLINE
  5
152
100
AcDbEntity
  8
0
 62
7
100
AcDbSpline
 70
8
 71
3
 72
8
 73
4
 74
0
 40
0
 40
0
 40
0
 40
0
 40
1
 40
1
 40
1
 40
1
 10
48.664214
 20
35.806704
 30
0.0
 10
48.289141
 20
36.181776
 30
0.0
 10
47.780433
 20
36.392490
 30
0.0
 10
47.250000
 20
36.392490
 30
0.0
  0
SPLINE
  5
153
100
AcDbEntity
  8
0
 62
7
100
AcDbSpline
 70
8
 71
3
 72
8
 73
4
 74
0
 40
0
 40
0
 40
0
 40
0
 40
1
 40
1
 40
1
 40
1
 10
49.250000
 20
12.867490
 30
0.0
 10
49.250000
 20
12.337057
 30
0.0
 10
49.460714
 20
11.828349
 30
0.0
 10
49.835786
 20
11.453276
 30
0.0
  0
SPLINE
  5
154
100
AcDbEntity
  8
0
 62
7
100
AcDbSpline
 70
8
 71
3
 72
8
 73
4
 74
0
 40
0
 40
0
 40
0
 40
0
 40
1
 40
1
 40
1
 40
1
 10
49.835786
 20
11.453276
 30
0.0
 10
50.210859
 20
11.078204
 30
0.0
 10
50.719567
 20
10.867490
 30
0.0
 10
51.250000
 20
10.867490
 30
0.0
  0
SPLINE
  5
155
100
AcDbEntity
  8
0
 62
7
100
AcDbSpline
 70
8
 71
3
 72
8
 73
4
 74
0
 40
0
 40
0
 40
0
 40
0
 40
1
 40
1
 40
1
 40
1
 10
109.350000
 20
9.867490
 30
0.0
 10
109.880433
 20
9.867490
 30
0.0
 10
110.389141
 20
10.078204
 30
0.0
 10
110.764214
 20
10.453276
 30
0.0
  0
SPLINE
  5
156
100
AcDbEntity
  8
0
 62
7
100
AcDbSpline
 70
8
 71
3
 72
8
 73
4
 74
0
 40
0
 40
0
 40
0
 40
0
 40
1
 40
1
 40
1
 40
1
 10
110.764214
 20
10.453276
 30
0.0
 10
111.139286
 20
10.828349
 30
0.0
 10
111.350000
 20
11.337057
 30
0.0
 10
111.350000
 20
11.867490
 30
0.0
  0
LWPOLYLINE
  5
157
100
AcDbEntity
  8
0
 62
7
100
AcDbPolyline
 90
2
 70
0
 10
88.350000
 20
10.867490
 30
0.0
 10
88.350000
 20
9.867490
 30
0.0
  0
LWPOLYLINE
  5
158
100
AcDbEntity
  8
0
 62
7
100
AcDbPolyline
 90
2
 70
0
 10
133.141000
 20
5.533090
 30
0.0
 10
144.571000
 20
36.936890
 30
0.0
  0
SPLINE
  5
159
100
AcDbEntity
  8
0
 62
7
100
AcDbSpline
 70
8
 71
3
 72
8
 73
4
 74
0
 40
0
 40
0
 40
0
 40
0
 40
1
 40
1
 40
1
 40
1
 10
88.350000
 20
10.867490
 30
0.0
 10
88.350000
 20
11.132706
 30
0.0
 10
88.244643
 20
11.387060
 30
0.0
 10
88.057107
 20
11.574597
 30
0.0
  0
SPLINE
  5
15a
100
AcDbEntity
  8
0
 62
7
100
AcDbSpline
 70
8
 71
3
 72
8
 73
4
 74
0
 40
0
 40
0
 40
0
 40
0
 40
1
 40
1
 40
1
 40
1
 10
88.057107
 20
11.574597
 30
0.0
 10
87.869570
 20
11.762133
 30
0.0
 10
87.615216
 20
11.867490
 30
0.0
 10
87.350000
 20
11.867490
 30
0.0
  0
SPLINE
  5
15b
100
AcDbEntity
  8
0
 62
7
100
AcDbSpline
 70
8
 71
3
 72
8
 73
4
 74
0
 40
0
 40
0
 40
0
 40
0
 40
1
 40
1
 40
1
 40
1
 10
131.859300
 20
4.935490
 30
0.0
 10
132.378254
 20
4.746599
 30
0.0
 10
132.952078
 20
5.014148
 30
0.0
 10
133.141000
 20
5.533090
 30
0.0
  0
SPLINE
  5
15c
100
AcDbEntity
  8
0
 62
7
100
AcDbSpline
 70
8
 71
3
 72
8
 73
4
 74
0
 40
0
 40
0
 40
0
 40
0
 40
1
 40
1
 40
1
 40
1
 10
101.325000
 20
114.092490
 30
0.0
 10
101.325000
 20
113.827274
 30
0.0
 10
101.430357
 20
113.572920
 30
0.0
 10
101.617893
 20
113.385383
 30
0.0
  0
SPLINE
  5
15d
100
AcDbEntity
  8
0
 62
7
100
AcDbSpline
 70
8
 71
3
 72
8
 73
4
 74
0
 40
0
 40
0
 40
0
 40
0
 40
1
 40
1
 40
1
 40
1
 10
101.617893
 20
113.385383
 30
0.0
 10
101.805430
 20
113.197847
 30
0.0
 10
102.059784
 20
113.092490
 30
0.0
 10
102.325000
 20
113.092490
 30
0.0
  0
LWPOLYLINE
  5
15e
100
AcDbEntity
  8
0
 62
7
100
AcDbPolyline
 90
2
 70
0
 10
111.350000
 20
12.400190
 30
0.0
 10
131.859300
 20
4.935490
 30
0.0
  0
LWPOLYLINE
  5
15f
100
AcDbEntity
  8
0
 62
7
100
AcDbPolyline
 90
2
 70
0
 10
145.231000
 20
37.838090
 30
0.0
 10
164.119400
 20
52.367090
 30
0.0
  0
LWPOLYLINE
  5
160
100
AcDbEntity
  8
0
 62
7
100
AcDbPolyline
 90
2
 70
0
 10
164.900000
 20
53.952290
 30
0.0
 10
164.900000
 20
93.517490
 30
0.0
  0
SPLINE
  5
161
100
AcDbEntity
  8
0
 62
7
100
AcDbSpline
 70
8
 71
3
 72
8
 73
4
 74
0
 40
0
 40
0
 40
0
 40
0
 40
1
 40
1
 40
1
 40
1
 10
145.231000
 20
37.838090
 30
0.0
 10
144.929873
 20
37.606471
 30
0.0
 10
144.700943
 20
37.293877
 30
0.0
 10
144.571000
 20
36.936890
 30
0.0
  0
SPLINE
  5
162
100
AcDbEntity
  8
0
 62
7
100
AcDbSpline
 70
8
 71
3
 72
8
 73
4
 74
0
 40
0
 40
0
 40
0
 40
0
 40
1
 40
1
 40
1
 40
1
 10
164.119400
 20
52.367090
 30
0.0
 10
164.611565
 20
52.745668
 30
0.0
 10
164.899980
 20
53.331365
 30
0.0
 10
164.900000
 20
53.952290
 30
0.0
  0
SPLINE
  5
163
100
AcDbEntity
  8
0
 62
7
100
AcDbSpline
 70
8
 71
3
 72
8
 73
4
 74
0
 40
0
 40
0
 40
0
 40
0
 40
1
 40
1
 40
1
 40
1
 10
164.900000
 20
93.517490
 30
0.0
 10
164.900000
 20
94.047923
 30
0.0
 10
164.689286
 20
94.556631
 30
0.0
 10
164.314214
 20
94.931704
 30
0.0
  0
SPLINE
  5
164
100
AcDbEntity
  8
0
 62
7
100
AcDbSpline
 70
8
 71
3
 72
8
 73
4
 74
0
 40
0
 40
0
 40
0
 40
0
 40
1
 40
1
 40
1
 40
1
 10
164.314214
 20
94.931704
 30
0.0
 10
163.939141
 20
95.306776
 30
0.0
 10
163.430433
 20
95.517490
 30
0.0
 10
162.900000
 20
95.517490
 30
0.0
  0
LWPOLYLINE
  5
165
100
AcDbEntity
  8
0
 62
7
100
AcDbPolyline
 90
2
 70
0
 10
162.900000
 20
95.517490
 30
0.0
 10
120.875200
 20
95.517490
 30
0.0
  0
LWPOLYLINE
  5
166
100
AcDbEntity
  8
0
 62
7
100
AcDbPolyline
 90
4
 70
1
 10
4.600000
 20
9.367490
 30
0.0
 10
18.600000
 20
9.367490
 30
0.0
 10
18.600000
 20
23.367490
 30
0.0
 10
4.600000
 20
23.367490
 30
0.0
  0
LWPOLYLINE
  5
167
100
AcDbEntity
  8
0
 62
7
100
AcDbPolyline
 90
4
 70
1
 10
4.600000
 20
28.917490
 30
0.0
 10
18.600000
 20
28.917490
 30
0.0
 10
18.600000
 20
42.917490
 30
0.0
 10
4.600000
 20
42.917490
 30
0.0
  0
LWPOLYLINE
  5
168
100
AcDbEntity
  8
0
 62
7
100
AcDbPolyline
 90
4
 70
1
 10
4.600000
 20
48.467490
 30
0.0
 10
18.600000
 20
48.467490
 30
0.0
 10
18.600000
 20
62.467490
 30
0.0
 10
4.600000
 20
62.467490
 30
0.0
  0
LWPOLYLINE
  5
169
100
AcDbEntity
  8
0
 62
7
100
AcDbPolyline
 90
4
 70
1
 10
4.600000
 20
68.017490
 30
0.0
 10
18.600000
 20
68.017490
 30
0.0
 10
18.600000
 20
82.017490
 30
0.0
 10
4.600000
 20
82.017490
 30
0.0
  0
LWPOLYLINE
  5
16a
100
AcDbEntity
  8
0
 62
7
100
AcDbPolyline
 90
4
 70
1
 10
4.600000
 20
87.567490
 30
0.0
 10
18.600000
 20
87.567490
 30
0.0
 10
18.600000
 20
101.567490
 30
0.0
 10
4.600000
 20
101.567490
 30
0.0
  0
LWPOLYLINE
  5
16b
100
AcDbEntity
  8
0
 62
7
100
AcDbPolyline
 90
4
 70
1
 10
24.150000
 20
9.367490
 30
0.0
 10
38.150000
 20
9.367490
 30
0.0
 10
38.150000
 20
23.367490
 30
0.0
 10
24.150000
 20
23.367490
 30
0.0
  0
LWPOLYLINE
  5
16c
100
AcDbEntity
  8
0
 62
7
100
AcDbPolyline
 90
4
 70
1
 10
24.150000
 20
28.917490
 30
0.0
 10
38.150000
 20
28.917490
 30
0.0
 10
38.150000
 20
42.917490
 30
0.0
 10
24.150000
 20
42.917490
 30
0.0
  0
LWPOLYLINE
  5
16d
100
AcDbEntity
  8
0
 62
7
100
AcDbPolyline
 90
4
 70
1
 10
24.150000
 20
48.467490
 30
0.0
 10
38.150000
 20
48.467490
 30
0.0
 10
38.150000
 20
62.467490
 30
0.0
 10
24.150000
 20
62.467490
 30
0.0
  0
LWPOLYLINE
  5
16e
100
AcDbEntity
  8
0
 62
7
100
AcDbPolyline
 90
4
 70
1
 10
24.150000
 20
68.017490
 30
0.0
 10
38.150000
 20
68.017490
 30
0.0
 10
38.150000
 20
82.017490
 30
0.0
 10
24.150000
 20
82.017490
 30
0.0
  0
LWPOLYLINE
  5
16f
100
AcDbEntity
  8
0
 62
7
100
AcDbPolyline
 90
4
 70
1
 10
24.150000
 20
87.567490
 30
0.0
 10
38.150000
 20
87.567490
 30
0.0
 10
38.150000
 20
101.567490
 30
0.0
 10
24.150000
 20
101.567490
 30
0.0
  0
LWPOLYLINE
  5
170
100
AcDbEntity
  8
0
 62
7
100
AcDbPolyline
 90
4
 70
1
 10
43.700000
 20
40.917490
 30
0.0
 10
57.700000
 20
40.917490
 30
0.0
 10
57.700000
 20
54.917490
 30
0.0
 10
43.700000
 20
54.917490
 30
0.0
  0
LWPOLYLINE
  5
171
100
AcDbEntity
  8
0
 62
7
100
AcDbPolyline
 90
4
 70
1
 10
43.700000
 20
60.467490
 30
0.0
 10
57.700000
 20
60.467490
 30
0.0
 10
57.700000
 20
74.467490
 30
0.0
 10
43.700000
 20
74.467490
 30
0.0
  0
LWPOLYLINE
  5
172
100
AcDbEntity
  8
0
 62
7
100
AcDbPolyline
 90
4
 70
1
 10
43.700000
 20
80.017490
 30
0.0
 10
57.700000
 20
80.017490
 30
0.0
 10
57.700000
 20
94.017490
 30
0.0
 10
43.700000
 20
94.017490
 30
0.0
  0
LWPOLYLINE
  5
173
100
AcDbEntity
  8
0
 62
7
100
AcDbPolyline
 90
4
 70
1
 10
43.700000
 20
99.567490
 30
0.0
 10
57.700000
 20
99.567490
 30
0.0
 10
57.700000
 20
113.567490
 30
0.0
 10
43.700000
 20
113.567490
 30
0.0
  0
LWPOLYLINE
  5
174
100
AcDbEntity
  8
0
 62
7
100
AcDbPolyline
 90
4
 70
1
 10
63.250000
 20
45.917490
 30
0.0
 10
77.250000
 20
45.917490
 30
0.0
 10
77.250000
 20
59.917490
 30
0.0
 10
63.250000
 20
59.917490
 30
0.0
  0
LWPOLYLINE
  5
175
100
AcDbEntity
  8
0
 62
7
100
AcDbPolyline
 90
4
 70
1
 10
63.250000
 20
65.467490
 30
0.0
 10
77.250000
 20
65.467490
 30
0.0
 10
77.250000
 20
79.467490
 30
0.0
 10
63.250000
 20
79.467490
 30
0.0
  0
LWPOLYLINE
  5
176
100
AcDbEntity
  8
0
 62
7
100
AcDbPolyline
 90
4
 70
1
 10
63.250000
 20
85.017490
 30
0.0
 10
77.250000
 20
85.017490
 30
0.0
 10
77.250000
 20
99.017490
 30
0.0
 10
63.250000
 20
99.017490
 30
0.0
  0
LWPOLYLINE
  5
177
100
AcDbEntity
  8
0
 62
7
100
AcDbPolyline
 90
4
 70
1
 10
63.250000
 20
104.567490
 30
0.0
 10
77.250000
 20
104.567490
 30
0.0
 10
77.250000
 20
118.567490
 30
0.0
 10
63.250000
 20
118.567490
 30
0.0
  0
LWPOLYLINE
  5
178
100
AcDbEntity
  8
0
 62
7
100
AcDbPolyline
 90
4
 70
1
 10
82.800000
 20
37.917490
 30
0.0
 10
96.800000
 20
37.917490
 30
0.0
 10
96.800000
 20
51.917490
 30
0.0
 10
82.800000
 20
51.917490
 30
0.0
  0
LWPOLYLINE
  5
179
100
AcDbEntity
  8
0
 62
7
100
AcDbPolyline
 90
4
 70
1
 10
82.800000
 20
57.467490
 30
0.0
 10
96.800000
 20
57.467490
 30
0.0
 10
96.800000
 20
71.467490
 30
0.0
 10
82.800000
 20
71.467490
 30
0.0
  0
LWPOLYLINE
  5
17a
100
AcDbEntity
  8
0
 62
7
100
AcDbPolyline
 90
4
 70
1
 10
82.800000
 20
77.017490
 30
0.0
 10
96.800000
 20
77.017490
 30
0.0
 10
96.800000
 20
91.017490
 30
0.0
 10
82.800000
 20
91.017490
 30
0.0
  0
LWPOLYLINE
  5
17b
100
AcDbEntity
  8
0
 62
7
100
AcDbPolyline
 90
4
 70
1
 10
82.800000
 20
96.567490
 30
0.0
 10
96.800000
 20
96.567490
 30
0.0
 10
96.800000
 20
110.567490
 30
0.0
 10
82.800000
 20
110.567490
 30
0.0
  0
LWPOLYLINE
  5
17c
100
AcDbEntity
  8
0
 62
7
100
AcDbPolyline
 90
4
 70
1
 10
102.350000
 20
35.917490
 30
0.0
 10
116.350000
 20
35.917490
 30
0.0
 10
116.350000
 20
49.917490
 30
0.0
 10
102.350000
 20
49.917490
 30
0.0
  0
LWPOLYLINE
  5
17d
100
AcDbEntity
  8
0
 62
7
100
AcDbPolyline
 90
4
 70
1
 10
102.350000
 20
55.467490
 30
0.0
 10
116.350000
 20
55.467490
 30
0.0
 10
116.350000
 20
69.467490
 30
0.0
 10
102.350000
 20
69.467490
 30
0.0
  0
LWPOLYLINE
  5
17e
100
AcDbEntity
  8
0
 62
7
100
AcDbPolyline
 90
4
 70
1
 10
102.350000
 20
75.017490
 30
0.0
 10
116.350000
 20
75.017490
 30
0.0
 10
116.350000
 20
89.017490
 30
0.0
 10
102.350000
 20
89.017490
 30
0.0
  0
LWPOLYLINE
  5
17f
100
AcDbEntity
  8
0
 62
7
100
AcDbPolyline
 90
4
 70
1
 10
102.350000
 20
94.567490
 30
0.0
 10
116.350000
 20
94.567490
 30
0.0
 10
116.350000
 20
108.567490
 30
0.0
 10
102.350000
 20
108.567490
 30
0.0
  0
LWPOLYLINE
  5
180
100
AcDbEntity
  8
0
 62
7
100
AcDbPolyline
 90
4
 70
1
 10
121.900000
 20
55.467490
 30
0.0
 10
135.900000
 20
55.467490
 30
0.0
 10
135.900000
 20
69.467490
 30
0.0
 10
121.900000
 20
69.467490
 30
0.0
  0
LWPOLYLINE
  5
181
100
AcDbEntity
  8
0
 62
7
100
AcDbPolyline
 90
4
 70
1
 10
121.900000
 20
75.017490
 30
0.0
 10
135.900000
 20
75.017490
 30
0.0
 10
135.900000
 20
89.017490
 30
0.0
 10
121.900000
 20
89.017490
 30
0.0
  0
LWPOLYLINE
  5
182
100
AcDbEntity
  8
0
 62
7
100
AcDbPolyline
 90
4
 70
1
 10
53.750000
 20
15.367490
 30
0.0
 10
67.750000
 20
15.367490
 30
0.0
 10
67.750000
 20
29.367490
 30
0.0
 10
53.750000
 20
29.367490
 30
0.0
  0
LWPOLYLINE
  5
183
100
AcDbEntity
  8
0
 62
7
100
AcDbPolyline
 90
4
 70
1
 10
73.300000
 20
16.367490
 30
0.0
 10
87.300000
 20
16.367490
 30
0.0
 10
87.300000
 20
30.367490
 30
0.0
 10
73.300000
 20
30.367490
 30
0.0
  0
LWPOLYLINE
  5
184
100
AcDbEntity
  8
0
 62
7
100
AcDbPolyline
 90
4
 70
1
 10
92.850000
 20
14.367490
 30
0.0
 10
106.850000
 20
14.367490
 30
0.0
 10
106.850000
 20
28.367490
 30
0.0
 10
92.850000
 20
28.367490
 30
0.0
  0
LWPOLYLINE
  5
185
100
AcDbEntity
  8
0
 62
7
100
AcDbPolyline
 90
4
 70
1
 10
133.033700
 20
18.395490
 30
0.0
 10
137.822000
 20
31.551190
 30
0.0
 10
124.666300
 20
36.339490
 30
0.0
 10
119.878000
 20
23.183790
 30
0.0
  0
ENDSEC
  0
SECTION
  2
OBJECTS
  0
DICTIONARY
  5
C
330
0
100
AcDbDictionary
  3
ACAD_GROUP
350
D
  3
ACAD_MLINESTYLE
350
17
  0
DICTIONARY
  5
D
330
C
100
AcDbDictionary
  0
DICTIONARY
  5
1A
330
C
100
AcDbDictionary
  0
DICTIONARY
  5
17
330
C
100
AcDbDictionary
  3
STANDARD
350
18
  0
DICTIONARY
  5
19
330
C
100
AcDbDictionary
  0
ENDSEC
  0
EOF
